<svg width="30" height="30" viewBox="0 0 30 30" fill="none" xmlns="http://www.w3.org/2000/svg">
<path fill-rule="evenodd" clip-rule="evenodd" d="M9.82568 27.9959C9.98868 29.0079 10.8587 29.7839 11.9167 29.7839C12.9747 29.7839 13.8457 29.0079 14.0077 27.9959H9.82568Z" fill="white"/>
<path fill-rule="evenodd" clip-rule="evenodd" d="M21.658 24.2627C21.157 24.2627 20.75 23.8567 20.75 23.3547V16.7207C20.75 12.2987 17.512 8.6417 13.279 7.9677C13.039 7.4537 12.521 7.0957 11.917 7.0957C11.318 7.0957 10.805 7.4477 10.562 7.9537C6.285 8.5897 3 12.2667 3 16.7207V23.3547C3 23.8567 2.594 24.2627 2.092 24.2627L0.628 24.3877C0.558 24.3877 0.5 24.4447 0.5 24.5157V27.3457H23.334V24.5157C23.334 24.4447 23.276 24.3877 23.205 24.3877L21.658 24.2627Z" fill="white"/>
<path fill-rule="evenodd" clip-rule="evenodd" d="M29.875 10.6871C29.875 16.0371 25.538 20.3751 20.187 20.3751C14.837 20.3751 10.5 16.0371 10.5 10.6871C10.5 5.3371 14.837 0.9991 20.187 0.9991C25.538 0.9991 29.875 5.3371 29.875 10.6871Z" fill="#E50914"/>
<path fill-rule="evenodd" clip-rule="evenodd" d="M23.2043 14.7496H17.4683C17.4753 14.0536 17.6433 13.4456 17.9723 12.9256C18.3003 12.4056 18.7483 11.9536 19.3163 11.5696C19.5883 11.3696 19.8723 11.1756 20.1683 10.9876C20.4643 10.7996 20.7363 10.5976 20.9843 10.3816C21.2313 10.1656 21.4353 9.9316 21.5963 9.6796C21.7563 9.4276 21.8403 9.1376 21.8483 8.8096C21.8483 8.6576 21.8303 8.4956 21.7943 8.3236C21.7583 8.1516 21.6873 7.9916 21.5843 7.8436C21.4793 7.6956 21.3363 7.5716 21.1523 7.4716C20.9683 7.3716 20.7273 7.3216 20.4323 7.3216C20.1603 7.3216 19.9333 7.3756 19.7543 7.4836C19.5743 7.5916 19.4303 7.7396 19.3223 7.9276C19.2143 8.1156 19.1343 8.3376 19.0823 8.5936C19.0303 8.8496 19.0003 9.1256 18.9923 9.4216H17.6243C17.6243 8.9576 17.6853 8.5276 17.8093 8.1316C17.9333 7.7356 18.1203 7.3936 18.3683 7.1056C18.6163 6.8176 18.9183 6.5916 19.2743 6.4276C19.6303 6.2636 20.0443 6.1816 20.5163 6.1816C21.0283 6.1816 21.4563 6.2656 21.8003 6.4336C22.1433 6.6016 22.4223 6.8136 22.6343 7.0696C22.8463 7.3256 22.9963 7.6036 23.0843 7.9036C23.1723 8.2036 23.2163 8.4896 23.2163 8.7616C23.2163 9.0976 23.1643 9.4016 23.0593 9.6736C22.9563 9.9456 22.8153 10.1956 22.6403 10.4236C22.4643 10.6516 22.2643 10.8616 22.0403 11.0536C21.8163 11.2456 21.5843 11.4256 21.3443 11.5936C21.1033 11.7616 20.8643 11.9216 20.6243 12.0736C20.3843 12.2256 20.1623 12.3776 19.9583 12.5296C19.7543 12.6816 19.5763 12.8396 19.4243 13.0036C19.2713 13.1676 19.1683 13.3416 19.1123 13.5256H23.2043V14.7496Z" fill="white"/>
</svg>
