<svg width="30" height="30" viewBox="0 0 30 30" fill="none" xmlns="http://www.w3.org/2000/svg">
<path fill-rule="evenodd" clip-rule="evenodd" d="M11.9507 16.556C10.6817 15.287 10.6817 13.223 11.9507 11.953C12.5657 11.339 13.3837 11 14.2527 11C15.1217 11 15.9387 11.339 16.5538 11.953C17.1687 12.568 17.5068 13.386 17.5068 14.255C17.5068 15.124 17.1687 15.941 16.5538 16.556C15.3247 17.785 13.1807 17.785 11.9507 16.556ZM21.5347 20.123L18.6058 17.194C19.1897 16.333 19.5068 15.319 19.5068 14.255C19.5068 12.851 18.9607 11.532 17.9677 10.539C16.9747 9.547 15.6557 9 14.2527 9C12.8487 9 11.5297 9.547 10.5367 10.539C8.48775 12.588 8.48775 15.922 10.5367 17.97C11.5297 18.963 12.8487 19.509 14.2527 19.509C15.3168 19.509 16.3297 19.192 17.1917 18.608L20.1208 21.537C20.3158 21.732 20.5718 21.83 20.8278 21.83C21.0837 21.83 21.3398 21.732 21.5347 21.537C21.9257 21.146 21.9257 20.513 21.5347 20.123Z" fill="white"/>
</svg>
