<svg width="464" height="132" viewBox="0 0 464 132" fill="none" xmlns="http://www.w3.org/2000/svg">
<path fill-rule="evenodd" clip-rule="evenodd" d="M6.23927 11.7941V31.8822H19.8211V37.6651H0V11.7941H6.23927ZM29.7887 11.7941L28.8756 21.5338H24.0821L23.169 11.7941H29.7887ZM47.5935 4.48938L41.3161 8.67439L38.615 5.40247L47.5935 0L56.5719 5.40247L53.8708 8.67439L47.5935 4.48938ZM55.4306 37.6651L53.7566 33.6323H41.2781L39.5661 37.6651H32.9464L44.0173 11.7941H50.9794L62.0884 37.6651H55.4306ZM43.4466 28.5342H51.5881L47.5554 18.8706L43.4466 28.5342ZM79.2083 11.3376C84.1921 11.3376 88.2248 13.5823 90.8118 17.0064L85.4095 19.7456C84.116 18.1097 82.0997 17.1966 79.1322 17.1966C74.6049 17.1966 71.4473 20.3544 71.4473 24.6535C71.4473 28.7624 74.681 32.3007 79.2083 32.3007C81.9855 32.3007 84.1921 31.4256 85.5617 30.1321V27.6211H77.6865V22.8273H91.0781V32.4148C90.8879 32.7953 86.8172 38.1217 79.2463 38.1217C70.6864 38.1217 65.1699 31.692 65.1699 24.7296C65.1699 17.539 71.0668 11.3376 79.2083 11.3376ZM95.7956 11.7941H115.617V17.5771H102.035V22.0284H113.372V27.4309H102.035V31.8822H115.617V37.6651H95.7956V11.7941ZM141.144 11.7941C149.666 11.7561 154.802 17.2346 154.802 24.6916C154.802 32.2246 149.21 37.6651 141.144 37.6651H129.693V11.8322L141.144 11.7941ZM135.932 17.5771V31.8822H141.144C145.482 31.8822 148.487 29.0288 148.487 24.6916C148.487 20.05 145.558 17.5771 141.144 17.5771H135.932ZM164.694 11.7941L163.781 21.5338H158.987L158.074 11.7941H164.694ZM181.053 11.3376C188.396 11.3376 194.407 17.3868 194.407 24.7296C194.407 32.1105 188.396 38.1217 181.053 38.1217C173.634 38.1217 167.699 32.1105 167.699 24.7296C167.699 17.3868 173.634 11.3376 181.053 11.3376ZM181.053 17.1586C176.83 17.1586 173.406 20.5446 173.406 24.7296C173.406 28.9527 176.83 32.3387 181.053 32.3387C185.2 32.3387 188.624 28.9527 188.624 24.7296C188.624 20.5446 185.2 17.1586 181.053 17.1586ZM211.032 11.7941C216.282 11.7941 220.239 15.865 220.239 21.4957C220.239 25.2242 218.413 28.382 215.635 29.8658L220.961 37.6651H213.2L209.32 31.2354H204.755V37.6651H198.515V11.7941H211.032ZM210.157 17.5771H204.755V25.4525H210.119C212.249 25.4525 213.961 23.6643 213.961 21.4957C213.961 19.3652 212.249 17.5771 210.157 17.5771ZM245.881 11.7941C254.402 11.7561 259.538 17.2346 259.538 24.6916C259.538 32.2246 253.946 37.6651 245.881 37.6651H234.429V11.8322L245.881 11.7941ZM240.668 17.5771V31.8822H245.881C250.218 31.8822 253.223 29.0288 253.223 24.6916C253.223 20.05 250.294 17.5771 245.881 17.5771H240.668ZM287.577 11.7941V24.3872C287.577 32.9475 282.175 38.1217 274.946 38.1217C267.604 38.1217 262.62 32.9475 262.62 24.3872V11.7941H268.859V24.3872C268.859 29.3712 270.99 32.3387 274.946 32.3387C278.827 32.3387 281.262 29.3712 281.262 24.3872V11.7941H287.577ZM320.638 28.3439L325.926 31.3876C323.605 35.2682 319.306 38.1217 313.828 38.1217C305.724 38.1217 299.827 32.1866 299.827 24.5394C299.827 17.3488 305.724 11.3376 313.828 11.3376C319.344 11.3376 323.681 13.9247 326.002 17.8053L320.714 20.887C319.496 18.5282 317.1 16.9683 313.828 16.9683C309.3 16.9683 306.143 20.2783 306.143 24.5394C306.143 28.6483 309.3 32.2626 313.828 32.2626C317.023 32.2626 319.382 30.6267 320.638 28.3439ZM336.35 11.7941V37.6651H330.111V11.7941H336.35ZM367.394 11.7941V37.6651H361.117L348.03 21.8382V37.6651H341.752V11.7941H348.03L361.117 27.583V11.7941H367.394ZM375.84 5.44052L387.862 0.456547L389.84 5.44052L377.704 9.20703L375.84 5.44052ZM372.834 11.7941H392.656V17.5771H379.074V22.0284H390.411V27.4309H379.074V31.8822H392.656V37.6651H372.834V11.7941ZM429.597 11.7941V37.6651H423.319V24.4633L417.118 37.6651H410.156L403.955 24.4633V37.6651H397.715V11.7941H404.64L413.656 30.7789L422.635 11.7941H429.597ZM456.304 37.6651L454.63 33.6323H442.151L440.439 37.6651H433.82L444.89 11.7941H451.853L462.962 37.6651H456.304ZM444.32 28.5342H452.461L448.429 18.8706L444.32 28.5342Z" fill="white"/>
<path fill-rule="evenodd" clip-rule="evenodd" d="M49.9472 94.9961C49.9472 83.6368 42.7188 72.4496 27.7456 72.4496H0.725098V130.967H14.9238V117.715H27.6596C42.6327 117.715 49.9472 106.528 49.9472 94.9961ZM14.9238 85.53H26.1106C31.7901 85.6161 35.6625 88.7141 35.6625 94.9961C35.6625 101.364 31.7901 104.72 26.1106 104.72H14.9238V85.53Z" fill="#E50914"/>
<path fill-rule="evenodd" clip-rule="evenodd" d="M117.412 101.709C117.412 85.0998 103.816 71.417 87.2079 71.417C70.4276 71.417 57.0034 85.0998 57.0034 101.709C57.0034 118.403 70.4276 132 87.2079 132C103.816 132 117.412 118.403 117.412 101.709ZM69.9113 101.709C69.9113 92.2424 77.6561 84.5835 87.2079 84.5835C96.5876 84.5835 104.332 92.2424 104.332 101.709C104.332 111.261 96.5876 118.92 87.2079 118.92C77.6561 118.92 69.9113 111.261 69.9113 101.709Z" fill="#E50914"/>
<path fill-rule="evenodd" clip-rule="evenodd" d="M140.819 72.4496V117.887H171.539V130.967H126.706V72.4496H140.819Z" fill="#E50914"/>
<path fill-rule="evenodd" clip-rule="evenodd" d="M238.23 101.709C238.23 85.0998 224.634 71.417 208.026 71.417C191.246 71.417 177.821 85.0998 177.821 101.709C177.821 118.403 191.246 132 208.026 132C224.634 132 238.23 118.403 238.23 101.709ZM190.729 101.709C190.729 92.2424 198.474 84.5835 208.026 84.5835C217.406 84.5835 225.15 92.2424 225.15 101.709C225.15 111.261 217.406 118.92 208.026 118.92C198.474 118.92 190.729 111.261 190.729 101.709Z" fill="#E50914"/>
<path fill-rule="evenodd" clip-rule="evenodd" d="M304.663 72.4496V130.967H290.464L260.862 95.1682V130.967H246.664V72.4496H260.862L290.464 108.163V72.4496H304.663Z" fill="#E50914"/>
<path fill-rule="evenodd" clip-rule="evenodd" d="M360.597 121.845L364.383 130.967H379.443L354.315 72.4496H338.568L313.526 130.967H328.5L332.372 121.845H360.597ZM355.692 110.314H337.277L346.571 88.4559L355.692 110.314Z" fill="#E50914"/>
<path fill-rule="evenodd" clip-rule="evenodd" d="M403.107 72.4496V130.967H388.995V72.4496H403.107Z" fill="#E50914"/>
<path fill-rule="evenodd" clip-rule="evenodd" d="M438.217 71.417C453.448 71.417 461.537 81.8297 461.537 90.9516H447.51C447.51 88.0257 444.068 84.0671 438.045 84.0671C433.828 84.0671 428.665 85.9604 428.665 89.3165C428.665 92.1564 432.537 93.2751 440.798 95.4265C450.006 97.836 463 100.934 463 113.842C463 125.03 453.19 132 439.507 132C421.178 132 413.52 119.608 413.52 110.486H427.546C427.546 110.486 428.665 119.78 440.282 119.78C446.564 119.78 448.887 117.112 448.887 114.617C448.887 110.916 443.982 109.626 438.561 108.335C429.783 106.269 414.38 102.999 414.38 90.005C414.38 79.3341 424.878 71.417 438.217 71.417Z" fill="#E50914"/>
</svg>
