<svg width="344" height="94" viewBox="0 0 344 94" fill="none" xmlns="http://www.w3.org/2000/svg">
<path fill-rule="evenodd" clip-rule="evenodd" d="M0 0V91H11.2068L10.1769 38.5398L9.66196 30.6769L9.01598 22.8159H9.7893L24.7335 91H38V0H26.7932L27.3082 45.8863L27.825 54.3946C28.0815 58.7759 28.5964 63.0301 29.1114 67.2842H28.3399C27.6939 64.319 27.1808 61.7411 26.4075 58.2615L12.8808 0H0Z" fill="white"/>
<path fill-rule="evenodd" clip-rule="evenodd" d="M77.9536 1L65 92H76.7755L78.8695 75.2435H92.7372L95.0934 92H107L92.7372 1H77.9536ZM85.8033 18.1438C85.9344 25.6194 86.0656 29.099 86.5881 32.5805L91.1676 64.1592H80.1769L84.1027 32.8368C84.363 31.2916 84.363 30.0026 84.7563 18.1438H85.8033Z" fill="white"/>
<path fill-rule="evenodd" clip-rule="evenodd" d="M128 92H140.02V50.1097C147.129 50.1097 148.551 50.1097 149.973 52.8167C151.395 55.7818 151.523 62.9993 151.523 66.4789V72.9237C151.523 82.2046 152.43 86.7151 153.462 92H166C163.933 86.586 163.674 84.9116 163.674 73.9545V64.0301C163.674 51.9131 162.51 47.0154 153.851 45.9846V45.4683C163.674 45.5974 164.061 39.0253 164.061 23.0414C164.061 4.99597 162.381 1 147.647 1H128V92ZM146.355 11.9571C151.523 11.9571 152.171 12.2134 152.171 22.2688C152.171 37.3491 151.912 40.0561 145.837 40.0561H140.149V11.9571H146.355Z" fill="white"/>
<path fill-rule="evenodd" clip-rule="evenodd" d="M186 70.943C186 75.7085 186 81.2479 188.895 85.8862C192.316 91.4238 198.763 94 205.606 94C223.237 94 226 80.8628 226 70.556V55.2277H213.632V72.1021C213.632 77.6416 213.632 83.5661 205.868 83.5661C198.37 83.5661 198.37 78.1576 198.37 73.0051V22.7689C198.37 18.1305 198.37 11.4339 206.132 11.4339C213.764 11.4339 213.764 17.8744 213.764 20.8358V34.8778H226V23.2849C226 16.8443 226 1 206.791 1C186 1 186 19.0335 186 27.0202V70.943Z" fill="white"/>
<path fill-rule="evenodd" clip-rule="evenodd" d="M247 71.3436C247 75.701 247 80.0583 249.183 84.1571C253.548 93 262.791 93 265.23 93C284.745 93 285 78.392 285 71.7286V28.8046C285 17.6574 285 11.3772 279.995 6.12537C276.271 2.15302 271.392 1 266.385 1C260.737 1 255.217 3.0494 251.495 7.27839C247.386 12.0188 247 17.9141 247 26.1136V71.3436ZM273.19 70.8322C273.19 77.2389 272.933 83.1324 265.873 83.1324C259.325 83.1324 258.941 78.1353 258.941 73.6516V25.0889C258.941 19.4502 258.941 17.5291 259.582 15.7345C261.122 11.3772 265.36 11.3772 266.258 11.3772C273.19 11.3772 273.19 17.4008 273.19 25.2172V70.8322Z" fill="white"/>
<path fill-rule="evenodd" clip-rule="evenodd" d="M319.3 59.2463H308V74.3784C308 78.9963 308 94 325.737 94C329.154 94 335.329 93.6147 339.665 87.9732C342.422 84.2525 344 78.4825 344 72.4557C344 60.7855 338.876 53.4744 332.963 44.8847C323.897 32.0605 321.008 27.8279 321.008 18.5941C321.008 14.1066 321.533 9.48878 327.183 9.48878C331.65 9.48878 332.043 12.8242 332.043 15.6459V31.6752H343.212V15.5156C343.212 6.15524 339.138 0 327.576 0C321.27 0 315.619 1.6677 311.942 7.43766C309.839 10.8996 308.788 15.0037 308.788 19.8766C308.788 31.5468 314.175 39.2413 321.533 49.6291C329.942 61.6827 331.518 65.5299 331.518 73.9931C331.518 78.7394 331.387 84.5094 325.605 84.5094C319.3 84.5094 319.3 78.8678 319.3 75.7893V59.2463Z" fill="white"/>
</svg>
