<svg width="123" height="34" viewBox="0 0 123 34" fill="none" xmlns="http://www.w3.org/2000/svg">
<path fill-rule="evenodd" clip-rule="evenodd" d="M16.865 0.0193634C15.1785 0.0193634 13.3737 0.0193634 11.687 0.0193634C11.677 7.06071 11.6671 11.6212 11.6571 18.6626C9.43199 11.7912 7.2049 7.24209 4.9721 0.0193634C3.0787 0.0193634 1.89369 0.0193634 0 0.0193634C0 11.0224 0 22.0255 0 33.0286C1.67844 32.7897 3.4756 32.5608 5.15575 32.3415C5.16059 25.4423 5.16543 21.2012 5.17027 14.3017C7.4825 21.0927 8.90412 25.0983 11.2095 31.552C13.0166 31.3455 15.0023 31.0916 16.8114 30.9079C16.8294 20.6118 16.847 10.3155 16.865 0.0193634Z" fill="#E50914"/>
<path fill-rule="evenodd" clip-rule="evenodd" d="M36.2061 0.0193634C31.4048 0.0193634 26.6628 0.0193634 21.8615 0.0193634C21.8421 10.1705 21.8231 20.322 21.8037 30.4731C26.6019 30.0366 31.4057 29.6799 36.2129 29.4028C36.2155 27.9185 36.2183 25.7851 36.2209 24.3011C33.0949 24.4932 30.1045 24.6934 26.9896 24.903C26.9951 22.1738 27.0005 19.9168 27.0056 17.1874C29.2822 17.1481 31.6867 17.1825 34.0123 17.143C34.0149 15.651 34.0177 13.5098 34.0206 12.0181C31.716 12.0588 29.2822 12.0637 27.0147 12.1067C27.0201 9.37727 27.0255 7.88016 27.0309 5.15075C28.4574 5.13367 29.8554 5.13139 31.2508 5.13139C31.4959 5.13139 31.7408 5.13139 31.9859 5.13167C32.2297 5.13167 32.4734 5.13167 32.7174 5.13167C33.8813 5.13167 35.0501 5.13025 36.2386 5.12C36.2414 3.63571 36.2035 1.50337 36.2061 0.0193634Z" fill="#E50914"/>
<path fill-rule="evenodd" clip-rule="evenodd" d="M55.5411 0.0421371C50.276 0.0421371 44.8335 0.0424219 39.5684 0.0427066C39.5659 1.51732 39.5636 3.6414 39.561 5.11572C39.7902 5.1143 40.0194 5.11373 40.2484 5.11373C40.9422 5.11373 41.6361 5.12028 42.3302 5.12711C43.0235 5.13395 43.7168 5.14078 44.4104 5.14078C44.5884 5.14078 44.766 5.14021 44.944 5.13936C44.9332 13.3233 44.9224 20.798 44.9118 28.982C46.6019 28.9191 48.4102 28.8661 50.1006 28.8231C50.1083 20.6841 50.116 13.2539 50.1234 5.11515C51.9089 5.10832 53.7536 5.1032 55.5391 5.09949C55.5396 3.64994 55.5405 1.49169 55.5411 0.0421371Z" fill="#E50914"/>
<path fill-rule="evenodd" clip-rule="evenodd" d="M73.3053 0.0193634C68.504 0.0193634 63.7027 0.0193634 58.9017 0.0193634C58.9003 9.57459 58.8989 19.1292 58.8975 28.6842C59.4541 28.6819 60.0173 28.681 60.5827 28.681C61.7344 28.681 62.895 28.6853 64.0293 28.6941C64.0279 24.6393 64.0267 20.9387 64.0256 16.8836C64.3083 16.8844 64.5939 16.885 64.8815 16.885C65.5511 16.885 66.2316 16.8824 66.915 16.8796C67.5983 16.8767 68.2845 16.8739 68.9647 16.8739C69.6657 16.8739 70.3601 16.8767 71.0392 16.8861C71.038 15.4326 71.0366 13.2701 71.0352 11.8165C70.394 11.81 69.7388 11.8077 69.0771 11.8077C68.3682 11.8077 67.6521 11.8103 66.9389 11.8128C66.2265 11.8154 65.5167 11.818 64.8194 11.818C64.5526 11.818 64.2873 11.8177 64.0242 11.8168C64.0233 9.20985 64.0227 7.73865 64.0219 5.13167C64.5851 5.13253 65.1468 5.13281 65.7066 5.13281C66.2749 5.13281 66.8415 5.13253 67.4078 5.13224C67.979 5.13196 68.5498 5.13167 69.121 5.13167C70.5124 5.13167 71.905 5.1331 73.3098 5.13936C73.3084 3.6824 73.3067 1.47632 73.3053 0.0193634Z" fill="#E50914"/>
<path fill-rule="evenodd" clip-rule="evenodd" d="M76.6671 0.0424271C76.6796 9.68962 76.6332 19.3368 76.6457 28.9843C81.2508 29.1557 86.09 29.3416 90.6894 29.6597C90.6865 28.1757 90.6837 26.0416 90.6808 24.5576C87.7698 24.3862 84.7392 24.1809 81.826 24.0599C81.8129 15.7979 81.8584 8.30441 81.8453 0.0427118C80.1583 0.0424271 78.3538 0.0424271 76.6671 0.0424271Z" fill="#E50914"/>
<path fill-rule="evenodd" clip-rule="evenodd" d="M94.939 0.0432816C94.9589 10.0199 94.9783 19.9965 94.9979 29.9734C96.6852 30.1038 98.4308 30.2436 100.117 30.3937C100.123 20.2838 100.137 10.1603 100.117 0.0435663C98.4305 0.0432816 96.6257 0.0432816 94.939 0.0432816Z" fill="#E50914"/>
<path fill-rule="evenodd" clip-rule="evenodd" d="M104.556 0.0438461C106.627 5.08839 108.521 10.1472 110.624 15.5043C108.439 20.65 106.214 25.7617 104.031 30.6978C105.839 30.8763 107.71 31.1374 109.517 31.3387C110.813 28.1597 111.993 25.7125 113.29 22.4478C114.586 25.9254 115.763 28.6124 117.055 32.2023C118.859 32.4363 121.198 32.772 123 33.0286C120.816 27.1899 118.427 21.1104 116.231 15.5923C118.418 10.4103 120.649 5.46338 122.921 0.0455545C121.056 0.0455545 119.132 0.0452698 117.267 0.044985C115.865 3.39368 114.9 5.54538 113.556 8.73292C112.305 5.4164 111.465 3.27011 110.211 0.0444156C108.345 0.0441309 106.421 0.0441309 104.556 0.0438461Z" fill="#E50914"/>
</svg>
